<?xml version="1.0" encoding="UTF-8"?>
<svg id="Layer_2" data-name="Layer 2" xmlns="http://www.w3.org/2000/svg" viewBox="0 0 107.89 118.13">
  <defs>
    <style>
      .cls-1, .cls-2 {
        fill: #008761;
      }

      .cls-2, .cls-3 {
        fill-rule: evenodd;
      }

      .cls-4, .cls-3 {
        fill: #36e39e;
      }
    </style>
  </defs>
  <g id="IDV_HealClinic" data-name="IDV HealClinic">
    <g id="Icon">
      <g>
        <rect class="cls-1" x="58" width="21.36" height="30.79"/>
        <rect class="cls-4" x="58" y="82.21" width="21.36" height="35.93"/>
        <path class="cls-3" d="M58,30.79v18.85c0,1.38,1.12,2.5,2.5,2.5h47.38V30.79H58Z"/>
        <path class="cls-2" d="M58,82.21v-18.85c0-1.38,1.12-2.5,2.5-2.5h47.38v21.36H58Z"/>
      </g>
      <g>
        <rect class="cls-4" x="28.52" y="0" width="21.36" height="30.79"/>
        <rect class="cls-1" x="28.52" y="82.21" width="21.36" height="35.93"/>
        <path class="cls-2" d="M49.88,30.79v18.85c0,1.38-1.12,2.5-2.5,2.5H0V30.79H49.88Z"/>
        <path class="cls-3" d="M49.88,82.21v-18.85c0-1.38-1.12-2.5-2.5-2.5H0s0,21.36,0,21.36H49.88Z"/>
      </g>
    </g>
  </g>
</svg>