<?xml version="1.0" encoding="UTF-8"?>
<svg id="Layer_2" data-name="Layer 2" xmlns="http://www.w3.org/2000/svg" viewBox="0 0 165.34 131.91">
  <defs>
    <style>
      .cls-1, .cls-2 {
        fill: #008761;
      }

      .cls-2, .cls-3 {
        fill-rule: evenodd;
      }

      .cls-4, .cls-3 {
        fill: #36e39e;
      }
    </style>
  </defs>
  <g id="IDV_HealClinic" data-name="IDV HealClinic">
    <g id="Vert">
      <g>
        <g>
          <path d="M20.05,131.4h-3.12v-10.97H3.12v10.97H0v-25.07H3.12v11.48h13.81v-11.48h3.12v25.07Z"/>
          <path d="M41.31,122.72h-13.95c.29,5.09,2.69,6.79,5.52,6.79,2.51,0,4.54-1.56,4.98-4.32h3.27c-.76,4.65-4.43,6.72-8.39,6.72-5.01,0-8.76-3.27-8.76-10.06,0-6.25,3.89-10.21,9.16-10.21s8.25,3.96,8.25,9.59c0,.29,0,.8-.07,1.49Zm-13.92-2.4h10.83c-.29-4-2-6.29-5.16-6.29s-5.3,2.18-5.67,6.29Z"/>
          <path d="M56.24,128.64l-1.05,2.07c-1.31,.91-2.98,1.2-4.83,1.2-3.49,0-6.21-1.93-6.21-5.49,0-4.36,3.27-6.61,10.83-6.61h1.23v-.51c0-.84,0-1.6-.07-2.33-.15-1.78-1.16-2.94-3.74-2.94s-3.92,1.42-4.14,4.07h-3.27c.29-4.11,3.16-6.47,7.41-6.47,4.58,0,6.5,1.93,6.83,5.09,.07,.76,.11,1.71,.11,2.54v7.23c0,1.45,.07,2.76,.36,4.9h-3.12l-.33-2.76Zm-.04-4.54v-1.96c-5.3-.4-8.65,.73-8.65,4.03,0,2.33,1.49,3.34,3.85,3.34,2.91,0,4.8-1.93,4.8-5.41Z"/>
          <path d="M67.79,125.88c0,.58,0,1.2,.04,1.82,.07,1.23,.65,1.63,2.36,1.45v2.25c-.69,.11-1.49,.15-2.22,.15-1.82,0-3.16-.58-3.27-3.02-.04-.65-.04-1.49-.04-2.54v-21.29h3.12v21.18Z"/>
        </g>
        <g>
          <path d="M97.62,114.33l.04,.36h-3.12l-.07-.36c-.73-3.6-2.94-6.03-7.12-6.03-5.12,0-8.28,4.47-8.28,10.54s3.12,10.61,8.07,10.61c4.18,0,6.39-2.43,7.12-6.03l.07-.36h3.12l-.04,.36c-.47,4.54-3.85,8.5-10.46,8.5-7.3,0-11.37-5.6-11.37-12.93s4.72-13.15,11.84-13.15c6.36,0,9.7,3.6,10.21,8.5Z"/>
          <path d="M104.92,125.88c0,.58,0,1.2,.04,1.82,.07,1.23,.65,1.63,2.36,1.45v2.25c-.69,.11-1.49,.15-2.22,.15-1.82,0-3.16-.58-3.27-3.02-.04-.65-.04-1.49-.04-2.54v-21.29h3.12v21.18Z"/>
          <path d="M114.48,107.82c0,1.13-.87,2-2,2s-2-.87-2-2,.87-2,2-2,2,.87,2,2Zm-3.56,23.58v-19.26h3.12v19.26h-3.12Z"/>
          <path d="M135.84,120.58v10.83h-3.12v-10.61c0-.98,0-1.78-.07-2.76-.18-2.25-1.42-3.92-4.4-3.92s-5.56,2.25-5.56,8.83v8.47h-3.12v-19.26h3.12v3.31l1.2-2.22c1.64-1.27,3.05-1.6,5.01-1.6,4.21,0,6.58,2.25,6.87,5.63,.07,.98,.07,1.74,.07,3.31Z"/>
          <path d="M144.67,107.82c0,1.13-.87,2-2,2s-2-.87-2-2,.87-2,2-2,2,.87,2,2Zm-3.56,23.58v-19.26h3.12v19.26h-3.12Z"/>
          <path d="M165.34,118.61h-3.27c-.69-3.09-2.36-4.58-4.94-4.58-3.02,0-5.56,2.36-5.56,7.56,0,5.6,2.47,7.92,5.34,7.92,2.54,0,4.32-1.45,4.98-4.25h3.27c-.94,4.47-4.14,6.65-8.43,6.65-4.87,0-8.57-3.05-8.57-10.1,0-6.5,4.21-10.17,9.05-10.17s7.56,2.76,8.14,6.98Z"/>
        </g>
      </g>
      <g>
        <g>
          <rect class="cls-1" x="84.39" width="16.12" height="23.24"/>
          <rect class="cls-4" x="84.39" y="62.05" width="16.12" height="27.12"/>
          <path class="cls-3" d="M84.39,23.24v11.12c0,2.76,2.24,5,5,5h32.65V23.24h-37.65Z"/>
          <path class="cls-2" d="M84.39,62.05v-11.12c0-2.76,2.24-5,5-5h32.65v16.12h-37.65Z"/>
        </g>
        <g>
          <rect class="cls-4" x="62.14" y="0" width="16.12" height="23.24"/>
          <rect class="cls-1" x="62.14" y="62.05" width="16.12" height="27.12"/>
          <path class="cls-2" d="M78.26,23.24v11.12c0,2.76-2.24,5-5,5H40.61V23.24h37.65Z"/>
          <path class="cls-3" d="M78.26,62.05v-11.12c0-2.76-2.24-5-5-5H40.61s0,16.12,0,16.12h37.65Z"/>
        </g>
      </g>
    </g>
  </g>
</svg>