<?xml version="1.0" encoding="UTF-8"?>
<svg id="Layer_2" data-name="Layer 2" xmlns="http://www.w3.org/2000/svg" viewBox="0 0 309.16 75.52">
  <defs>
    <style>
      .cls-1, .cls-2 {
        fill: #008761;
      }

      .cls-2, .cls-3 {
        fill-rule: evenodd;
      }

      .cls-4, .cls-3 {
        fill: #36e39e;
      }
    </style>
  </defs>
  <g id="IDV_HealClinic" data-name="IDV HealClinic">
    <g id="Horz">
      <g>
        <g>
          <path d="M114.47,52.9h-4.19v-14.7h-18.5v14.7h-4.19V19.3h4.19v15.39h18.5v-15.39h4.19V52.9Z"/>
          <path d="M142.95,41.26h-18.7c.39,6.82,3.6,9.11,7.4,9.11,3.36,0,6.09-2.09,6.67-5.79h4.38c-1.02,6.23-5.94,9.01-11.25,9.01-6.72,0-11.73-4.38-11.73-13.49,0-8.38,5.21-13.68,12.27-13.68s11.05,5.31,11.05,12.85c0,.39,0,1.07-.1,2Zm-18.65-3.21h14.51c-.39-5.36-2.68-8.42-6.91-8.42s-7.11,2.92-7.6,8.42Z"/>
          <path d="M162.96,49.2l-1.41,2.78c-1.75,1.22-3.99,1.61-6.48,1.61-4.67,0-8.33-2.58-8.33-7.35,0-5.84,4.38-8.86,14.51-8.86h1.66v-.68c0-1.12,0-2.14-.1-3.12-.19-2.39-1.56-3.94-5.02-3.94s-5.26,1.9-5.55,5.45h-4.38c.39-5.5,4.24-8.67,9.93-8.67,6.14,0,8.72,2.58,9.15,6.82,.1,1.02,.15,2.29,.15,3.41v9.69c0,1.95,.1,3.7,.49,6.57h-4.19l-.44-3.7Zm-.05-6.09v-2.63c-7.11-.54-11.59,.97-11.59,5.4,0,3.12,2,4.48,5.16,4.48,3.9,0,6.43-2.58,6.43-7.25Z"/>
          <path d="M178.44,45.5c0,.78,0,1.61,.05,2.43,.1,1.66,.88,2.19,3.17,1.95v3.02c-.93,.15-2,.19-2.97,.19-2.43,0-4.24-.78-4.38-4.04-.05-.88-.05-2-.05-3.41V17.11h4.19v28.39Z"/>
        </g>
        <g>
          <path d="M218.41,30.01l.05,.49h-4.19l-.1-.49c-.97-4.82-3.94-8.08-9.54-8.08-6.87,0-11.1,5.99-11.1,14.12s4.19,14.22,10.81,14.22c5.6,0,8.57-3.26,9.54-8.08l.1-.49h4.19l-.05,.49c-.63,6.09-5.16,11.39-14.02,11.39-9.79,0-15.24-7.5-15.24-17.33s6.33-17.63,15.87-17.63c8.52,0,13,4.82,13.68,11.39Z"/>
          <path d="M228.19,45.5c0,.78,0,1.61,.05,2.43,.1,1.66,.88,2.19,3.17,1.95v3.02c-.93,.15-2,.19-2.97,.19-2.43,0-4.24-.78-4.38-4.04-.05-.88-.05-2-.05-3.41V17.11h4.19v28.39Z"/>
          <path d="M241,21.3c0,1.51-1.17,2.68-2.68,2.68s-2.68-1.17-2.68-2.68,1.17-2.68,2.68-2.68,2.68,1.17,2.68,2.68Zm-4.77,31.6V27.09h4.19v25.81h-4.19Z"/>
          <path d="M269.62,38.39v14.51h-4.19v-14.22c0-1.31,0-2.39-.1-3.7-.24-3.02-1.9-5.26-5.89-5.26s-7.45,3.02-7.45,11.83v11.34h-4.19V27.09h4.19v4.43l1.61-2.97c2.19-1.7,4.09-2.14,6.72-2.14,5.65,0,8.81,3.02,9.2,7.55,.1,1.31,.1,2.34,.1,4.43Z"/>
          <path d="M281.45,21.3c0,1.51-1.17,2.68-2.68,2.68s-2.68-1.17-2.68-2.68,1.17-2.68,2.68-2.68,2.68,1.17,2.68,2.68Zm-4.77,31.6V27.09h4.19v25.81h-4.19Z"/>
          <path d="M309.16,35.76h-4.38c-.93-4.14-3.17-6.14-6.62-6.14-4.04,0-7.45,3.17-7.45,10.13,0,7.5,3.31,10.61,7.16,10.61,3.41,0,5.79-1.95,6.67-5.7h4.38c-1.27,5.99-5.55,8.91-11.3,8.91-6.52,0-11.49-4.09-11.49-13.54,0-8.72,5.65-13.63,12.12-13.63s10.13,3.7,10.91,9.35Z"/>
        </g>
      </g>
      <g>
        <g>
          <rect class="cls-1" x="37.08" width="13.65" height="19.68"/>
          <rect class="cls-4" x="37.08" y="52.55" width="13.65" height="22.97"/>
          <path class="cls-3" d="M37.08,19.68v8.65c0,2.76,2.24,5,5,5h26.89v-13.65h-31.89Z"/>
          <path class="cls-2" d="M37.08,52.55v-8.65c0-2.76,2.24-5,5-5h26.89v13.65h-31.89Z"/>
        </g>
        <g>
          <rect class="cls-4" x="18.23" y="0" width="13.65" height="19.68"/>
          <rect class="cls-1" x="18.23" y="52.55" width="13.65" height="22.97"/>
          <path class="cls-2" d="M31.89,19.68v8.65c0,2.76-2.24,5-5,5H0v-13.65H31.89Z"/>
          <path class="cls-3" d="M31.89,52.55v-8.65c0-2.76-2.24-5-5-5H0s0,13.65,0,13.65H31.89Z"/>
        </g>
      </g>
    </g>
  </g>
</svg>