<!--?xml version="1.0" encoding="utf-8"?-->
<!-- Svg Vector Icons : http://www.onlinewebfonts.com/icon -->

<svg version="1.1" xmlns="http://www.w3.org/2000/svg" xmlns:xlink="http://www.w3.org/1999/xlink" x="0px" y="0px" viewBox="0 0 256 256" enable-background="new 0 0 256 256" xml:space="preserve">
<metadata> Svg Vector Icons : http://www.onlinewebfonts.com/icon </metadata>
<g><g><g><path fill="#008761" data-title="Layer 0" xs="0" d="M115.3,10.7C64.8,17.5,25.6,54.3,16,103.5c-4.8,24.7-1.2,49.9,10.3,73.1l4.2,8.3l-10.3,30.4C14.4,232,9.9,245.8,10,245.9s14.5-4.3,31.9-9.9l31.7-10.1l6.1,2.9c24.8,11.6,52.3,14.4,78.5,8c40.2-10,72.5-41.2,83.7-80.8c4.7-16.7,5.4-36.7,2-53.7c-7.9-39-35.7-71.4-73.4-85.4c-5.7-2.2-15-4.6-22-5.8C141.7,10,122.2,9.7,115.3,10.7z M144.1,29.2c37.8,5.1,70,33.3,80.1,70.3c4.3,15.8,4.5,33.4,0.6,49c-8.1,31.9-32.3,57.9-63.7,68.3c-26.9,8.9-56.6,5.9-80.5-8.4c-2.2-1.3-4.2-2.4-4.4-2.4c-0.2,0-8.6,2.6-18.7,5.9c-10.1,3.2-18.3,5.6-18.3,5.4c0-0.2,2.7-8.3,6-17.9l6-17.5l-2.7-4c-3.3-5-8.7-16-10.7-21.8c-15.7-45.4,5-95.6,48.5-117.6C104,29.6,123.4,26.4,144.1,29.2z"/><path fill="#008761" data-title="Layer 1" xs="1" d="M86.4,73.6c-4.1,2-9.7,9.8-11.7,16.3c-0.4,1.3-0.9,4.7-1.1,7.5c-0.4,6.6,0.9,12.3,4.5,19.7c2.6,5.4,8.7,14.6,14.7,22.1c10.5,13.2,23.5,24,35.8,29.9c9.6,4.6,24.4,9.4,30.7,10.1c8.6,0.9,21.6-4.8,26.2-11.5c3-4.3,4.6-14.9,2.6-16.7c-1-0.9-20.5-10.4-24.3-11.9c-1.3-0.5-3-0.8-3.6-0.6c-0.8,0.2-2.8,2.2-5,5c-5.5,7-8.3,9.6-9.8,9.6c-2,0-12-4.8-17.6-8.5c-7.1-4.7-16.3-14-21.3-21.4c-2.1-3-3.7-6.1-3.7-6.8c0-0.7,1.3-2.7,3.6-5.3c3.3-3.9,6.2-8.4,6.2-9.9c0-0.3-2.4-6.3-5.2-13.2c-3.4-8.1-5.8-13.1-6.6-14.1c-1.3-1.3-1.6-1.4-6.7-1.4C89.5,72.5,88.2,72.7,86.4,73.6z"/></g></g></g>
</svg>